# xmcd CD database file
#
# Track frame offsets:
#	150
#	14400
#	25228
#	36928
#	47525
#	58350
#	75679
#	88650
#	107700
#	119172
#	132399
#	144152
#	155477
#	165349
#	180074
#	197446
#	213925
#	229236
#	239800
#	249989
#	265424
#	282855
#	295804
#	309874
#	321049
#
# Disc length: 4418 seconds
#
# Revision: 3
# Processed by: cddbd v1.5.2PL0 Copyright (c) Steve Scherf et al.
# Submitted via: CDex 1.70beta2
#
DISCID=5d114019
DTITLE=Doug Kershaw - Fais Do Do:  The Music of The Bayou 1969-1978
DYEAR=2006
DGENRE=Country
TTITLE0=Lousiana Man
TTITLE1=Digggy Diggy Lo
TTITLE2=Fais Do Do
TTITLE3=My Uncle Abel
TTITLE4=Cajun Joe (The Bully Of The Bayou)
TTITLE5=Play Fiddle Play
TTITLE6=Natural Man
TTITLE7=Swamp Grass
TTITLE8=Billy Bayou
TTITLE9=(Had It Not Been For) My Sally Jo
TTITLE10=Willie's Shades
TTITLE11=Louisiana Love Song
TTITLE12=Mama's Got The Know How
TTITLE13=Happy Ti Yo
TTITLE14=The Cajun Stripper
TTITLE15=Dixie Creole
TTITLE16=Mon Chapeau (My Hat)
TTITLE17=Mamou Two Step
TTITLE18=It Takes All Day (Yo Get Over Night)
TTITLE19=Rag Mama Rag
TTITLE20=Flip Flop and Fly
TTITLE21=Black Rose
TTITLE22=I'm A Loser
TTITLE23=I Just Want To Feel The Magic
TTITLE24=Jambalaya (On The Bayou)
EXTD=YEAR: 2006
EXTT0=
EXTT1=
EXTT2=
EXTT3=
EXTT4=
EXTT5=
EXTT6=
EXTT7=
EXTT8=
EXTT9=
EXTT10=
EXTT11=
EXTT12=
EXTT13=
EXTT14=
EXTT15=
EXTT16=
EXTT17=
EXTT18=
EXTT19=
EXTT20=
EXTT21=
EXTT22=
EXTT23=
EXTT24=
PLAYORDER=
